<svg width="360" height="326" viewBox="0 0 360 326" fill="none" xmlns="http://www.w3.org/2000/svg">
<mask id="mask0_108_856" style="mask-type:alpha" maskUnits="userSpaceOnUse" x="0" y="0" width="360" height="326">
<path d="M0 0H360V273.135C280.901 343.622 79.0986 343.622 0 273.135V0Z" fill="white"/>
</mask>
<g mask="url(#mask0_108_856)">
<path d="M0 0H360V273.135C280.901 343.622 79.0986 343.622 0 273.135V0Z" fill="#4A9BE6"/>
<rect x="53" y="231" width="54" height="126" rx="5" fill="#88C1F4"/>
<rect x="57" y="238" width="11" height="13" rx="1" fill="#2B8FEB"/>
<rect x="72" y="238" width="11" height="13" rx="1" fill="#2B8FEB"/>
<rect x="72" y="256" width="11" height="13" rx="1" fill="#2B8FEB"/>
<rect x="57" y="256" width="11" height="13" rx="1" fill="#2B8FEB"/>
<rect x="72" y="272" width="11" height="13" rx="1" fill="#2B8FEB"/>
<rect x="87" y="238" width="11" height="13" rx="1" fill="#2B8FEB"/>
<g filter="url(#filter0_i_108_856)">
<path d="M206.58 319.897C203.38 326.297 210.247 338.231 214.08 343.397H224.08C226.247 339.231 230.78 328.697 231.58 319.897C232.58 308.897 214.08 312.897 214.08 301.397C214.08 289.897 214.08 290.897 200.58 280.897C187.08 270.897 185.58 289.397 186.08 296.897C186.58 304.397 210.58 311.897 206.58 319.897Z" fill="#FF434D"/>
</g>
<path d="M170.958 319.72C164.45 319.961 164.889 328.756 165.921 333.123C168.098 335.471 172.723 339.701 173.81 337.841C175.169 335.516 173.805 327.729 180.751 325.229C187.615 322.757 190.421 317.705 194.491 310.379L194.637 310.115C198.787 302.647 208.978 312.259 216.396 313.367C223.813 314.476 227.321 307.922 229.64 299.169C231.959 290.416 217.522 292.302 216.783 297.247C216.044 302.192 208.234 307.092 204.374 302.471C200.515 297.849 184.594 299.514 183.633 305.943C182.673 312.371 179.091 319.419 170.958 319.72Z" fill="#93E1DD"/>
<path d="M209.205 320.887C199.486 314.884 199.98 314.958 194.199 323.194C191.035 324.069 184.618 326.413 184.263 328.787C183.82 331.754 191.09 333.852 200.088 331.152C209.086 328.452 213.144 335.126 216.531 336.137C219.919 337.149 237.221 329.624 240.359 325.543C243.497 321.462 242.946 308.236 237.382 304.876C231.817 301.517 231.203 309.008 226.905 317.466C222.608 325.923 218.925 326.89 209.205 320.887Z" fill="#93E1DD"/>
<path d="M155.536 331.571C155.936 339.72 165.332 340.45 169.979 339.796C166.387 341.282 157.61 343.408 151.239 340.029C143.276 335.805 148.096 333.998 142.679 329.649C137.263 325.301 138.024 316.82 133.671 312.125C129.317 307.43 147.784 305.64 156.56 304.424C165.337 303.208 155.037 321.385 155.536 331.571Z" fill="#93E1DD"/>
<path d="M38.8682 256.352C52.7014 253.253 58.0927 266.272 59.0591 273.169C55.9984 274.867 38.3651 281.216 32.4898 279.901C26.6144 278.586 19.8204 271.49 20.941 266.295C22.0616 261.099 21.5766 260.225 38.8682 256.352Z" fill="#1ED6CB"/>
<rect x="27.9441" y="253.262" width="4" height="8.94253" rx="2" transform="rotate(4.55959 27.9441 253.262)" fill="#4A9BE5"/>
<rect x="44.6901" y="252.809" width="4" height="8.94253" rx="2" transform="rotate(28.1272 44.6901 252.809)" fill="#4A9BE5"/>
<rect x="26.5702" y="273.464" width="4" height="8.94253" rx="2" transform="rotate(4.55959 26.5702 273.464)" fill="#4A9BE5"/>
<rect x="43.3162" y="273.01" width="4" height="8.94253" rx="2" transform="rotate(28.1272 43.3162 273.01)" fill="#4A9BE5"/>
<path d="M58.0291 272.914C53.3648 269.833 42.6236 264.024 36.9735 265.437C31.3235 266.85 24.8135 264.372 22.2648 262.956" stroke="#06122B" stroke-width="1.2" stroke-linecap="round"/>
<path d="M84.5 325C81.8333 311 72.8 281 58 273" stroke="#06122B" stroke-width="1.2" stroke-linecap="round"/>
<path d="M42.0431 280.999C50.9103 277.402 55.9432 285.473 57.3513 289.958C55.5015 291.428 44.4645 297.61 40.4067 297.386C36.3489 297.161 31.0386 293.19 31.2088 289.606C31.379 286.023 30.9591 285.494 42.0431 280.999Z" fill="#93E1DD"/>
<rect x="34.4271" y="280.153" width="2.7" height="6.03621" rx="1.35" transform="rotate(-4.89281 34.4271 280.153)" fill="#4A9BE5"/>
<rect x="45.5269" y="277.994" width="2.7" height="6.03621" rx="1.35" transform="rotate(18.6748 45.5269 277.994)" fill="#4A9BE5"/>
<rect x="35.7518" y="293.756" width="2.7" height="6.03621" rx="1.35" transform="rotate(-4.89281 35.7518 293.756)" fill="#4A9BE5"/>
<rect x="46.8515" y="291.598" width="2.7" height="6.03621" rx="1.35" transform="rotate(18.6748 46.8515 291.598)" fill="#4A9BE5"/>
<path d="M56.6373 289.903C53.1901 288.368 45.3942 285.691 41.7888 287.258C38.1835 288.825 33.5742 287.897 31.7203 287.237" stroke="#06122B" stroke-width="0.81" stroke-linecap="round"/>
<path d="M80.0365 321.649C76.709 312.623 67.3686 293.649 56.6274 289.963" stroke="#06122B" stroke-width="0.81" stroke-linecap="round"/>
<path d="M286.819 265.372C273.452 270.092 275.796 283.987 278.639 290.344C282.134 290.158 300.448 286.175 304.728 281.941C309.008 277.706 310.998 268.087 307.29 264.279C303.581 260.471 303.528 259.473 286.819 265.372Z" fill="#FF7C45"/>
<rect width="4" height="8.94253" rx="2" transform="matrix(-0.802485 0.596673 0.596673 0.802485 294.435 256.954)" fill="#4A9BE5"/>
<rect width="4" height="8.94253" rx="2" transform="matrix(-0.49698 0.867762 0.867762 0.49698 280.004 265.462)" fill="#4A9BE5"/>
<rect width="4" height="8.94253" rx="2" transform="matrix(-0.802485 0.596673 0.596673 0.802485 306.327 273.343)" fill="#4A9BE5"/>
<rect width="4" height="8.94253" rx="2" transform="matrix(-0.49698 0.867762 0.867762 0.49698 291.895 281.851)" fill="#4A9BE5"/>
<path d="M279.377 289.581C281.693 284.494 287.71 273.868 293.248 272.065C298.787 270.262 302.987 264.706 304.395 262.153" stroke="#06122B" stroke-width="1.2" stroke-linecap="round"/>
<path d="M284.603 347.774C279.429 334.494 271.154 304.276 279.447 289.639" stroke="#06122B" stroke-width="1.2" stroke-linecap="round"/>
<path d="M297.216 287.944C287.792 289.605 287.813 299.116 289.001 303.664C291.349 303.927 303.985 303.306 307.304 300.961C310.623 298.616 313.014 292.431 310.967 289.485C308.92 286.539 308.995 285.868 297.216 287.944Z" fill="#FFB89A"/>
<rect width="2.7" height="6.03621" rx="1.35" transform="matrix(-0.889579 0.456781 0.456781 0.889579 303.22 283.183)" fill="#4A9BE5"/>
<rect width="2.7" height="6.03621" rx="1.35" transform="matrix(-0.632743 0.774362 0.774362 0.632743 292.668 287.248)" fill="#4A9BE5"/>
<rect width="2.7" height="6.03621" rx="1.35" transform="matrix(-0.889579 0.456781 0.456781 0.889579 309.321 295.414)" fill="#4A9BE5"/>
<rect width="2.7" height="6.03621" rx="1.35" transform="matrix(-0.632743 0.774362 0.774362 0.632743 298.769 299.478)" fill="#4A9BE5"/>
<path d="M289.577 303.238C291.683 300.107 296.868 293.699 300.755 293.113C304.642 292.526 308.055 289.292 309.276 287.748" stroke="#06122B" stroke-width="0.81" stroke-linecap="round"/>
<path d="M286.606 342.564C284.633 333.148 282.473 312.111 289.617 303.284" stroke="#06122B" stroke-width="0.81" stroke-linecap="round"/>
<path d="M256.979 222.028C255.953 216.675 254.31 212.688 247.635 217.472C247.635 217.472 247.577 212.169 245.215 210.075C242.853 207.98 227.932 198.651 227.361 213.985C227.361 213.985 227.088 226.303 227.088 229.379C227.088 232.454 231.411 242.873 235.005 242.873C235.858 242.858 236.705 242.722 237.522 242.468C237.002 246.723 235.701 250.836 233.69 254.591L255.767 250.155C255.767 250.155 251.952 244.034 251.156 232.014C254.521 228.931 257.731 225.947 256.979 222.028Z" fill="#FFB7B6"/>
<path d="M264.928 186.089C254.532 186.089 254.472 196.142 254.472 196.142L256.12 199.138C243.904 190.02 236.91 198.306 236.91 198.306C227.088 196.12 222.1 202.713 221.354 210.572C220.607 218.432 227.203 221.619 227.203 221.619L227.316 216.093C230.597 214.211 229.958 212.046 230.356 210.95C231.517 216.503 240.9 219.005 242.801 220.774C244.82 222.654 245.041 226.84 246.203 226.84C247.364 226.84 246.724 220.656 250.351 218.553C254.983 215.867 256.264 221.405 255.412 224.277C254.472 227.445 250.895 231.238 250.895 231.238L251.342 236.45C258.567 231.801 263.943 221.243 263.12 211.866L263.12 211.867C271.425 211.633 274.578 208.586 277.058 203.432C279.679 197.983 275.325 186.089 264.928 186.089Z" fill="#161B36"/>
<path d="M263.206 205.197C260.38 199.046 255.684 196.27 254.472 196.142C252.936 195.979 252.391 196.782 252.391 196.782L252.391 196.783C253.831 197.533 255.203 198.415 256.491 199.417C261.377 203.173 263.311 208.608 263.2 214.249C263.593 214.038 263.967 213.792 264.317 213.513C264.837 213.08 266.032 211.348 263.206 205.197Z" fill="#F76161"/>
<g style="mix-blend-mode:overlay" opacity="0.6">
<path d="M237.55 242.135C237.55 242.135 244.07 238.682 246.14 236.45C246.256 240.154 245.017 243.768 242.668 246.576C240.818 248.721 237.923 249.344 235.892 249.486C236.715 247.109 237.271 244.643 237.55 242.135Z" fill="#030F1C"/>
</g>
<path d="M235.682 215.794C235.977 215.451 236.384 215.185 237.603 215.261C238.823 215.337 240.671 216.517 240.264 216.821C239.858 217.126 238.638 216.098 237.677 216.441C236.716 216.783 236.165 217.065 235.842 216.878C235.435 216.644 235.539 215.958 235.682 215.794Z" fill="#161B36"/>
<path d="M230.397 215.444C230.009 215.218 229.541 215.101 228.411 215.579C227.28 216.056 225.901 217.787 226.382 217.94C226.862 218.093 227.694 216.715 228.711 216.72C229.727 216.725 230.338 216.808 230.585 216.524C230.896 216.167 230.583 215.553 230.397 215.444Z" fill="#161B36"/>
<g style="mix-blend-mode:overlay" opacity="0.6">
<path d="M232.502 230.863C232.01 230.871 231.524 230.743 231.097 230.492C230.79 230.324 230.572 230.024 230.502 229.673C230.399 229.013 230.975 227.719 231.573 226.451C231.67 226.245 231.749 226.078 231.795 225.969C232.567 224.142 232.216 220.662 232.213 220.626C232.204 220.547 232.238 220.468 232.301 220.421C232.364 220.374 232.446 220.365 232.518 220.397C232.589 220.43 232.638 220.499 232.646 220.579C232.661 220.726 233.013 224.212 232.195 226.148C232.147 226.261 232.065 226.434 231.965 226.647C231.601 227.419 230.843 229.027 230.932 229.603C230.987 229.821 231.13 230.006 231.325 230.11C231.904 230.431 232.583 230.502 233.213 230.306C233.327 230.268 233.45 230.333 233.487 230.451C233.524 230.57 233.461 230.696 233.346 230.734C233.073 230.821 232.788 230.865 232.502 230.863V230.863Z" fill="#030F1C"/>
</g>
<path d="M231.662 235.277C231.624 235.142 231.641 234.997 231.707 234.875C231.774 234.752 231.885 234.662 232.017 234.624C232.671 234.429 233.876 234.062 234.795 233.74C235.752 233.349 236.683 232.893 237.582 232.375C237.738 232.288 237.928 232.289 238.083 232.38C238.238 232.47 238.337 232.636 238.345 232.82C238.407 234.229 238.242 236.98 236.091 237.541C233.474 238.223 232.104 236.765 231.662 235.277Z" fill="#161B36"/>
<path d="M232.8 237.034C232.8 237.034 235.051 233.796 238.267 234.535C238.267 234.535 238.272 237.064 236.199 237.634C233.966 238.248 232.8 237.034 232.8 237.034Z" fill="#E55151"/>
<path d="M238.672 220.176C238.254 220.08 237.828 220.027 237.4 220.018C236.941 220.018 236.568 220.648 236.568 221.426C236.568 222.203 236.941 222.833 237.4 222.833C237.859 222.833 238.232 222.203 238.232 221.426C238.238 221.084 238.157 220.747 237.997 220.448C238.331 220.459 238.662 220.511 238.984 220.603C239.296 220.696 239.318 220.33 238.672 220.176Z" fill="#161B36"/>
<path d="M230.363 220.761C229.976 220.672 229.583 220.62 229.188 220.605C229.183 220.605 229.178 220.603 229.173 220.603C229.169 220.603 229.166 220.604 229.162 220.604C229.12 220.603 229.09 220.603 229.09 220.603L229.086 220.617C228.668 220.691 228.341 221.283 228.341 222.011C228.341 222.788 228.713 223.419 229.173 223.419C229.632 223.419 230.004 222.788 230.004 222.011C230.01 221.671 229.93 221.335 229.771 221.037C230.077 221.053 230.38 221.104 230.674 221.188C230.986 221.281 231.008 220.916 230.363 220.761Z" fill="#161B36"/>
<path d="M248.451 209.475C248.359 209.475 248.277 209.416 248.246 209.327C245.89 202.63 239.06 199.634 238.991 199.605C238.919 199.574 238.868 199.506 238.858 199.426C238.848 199.347 238.88 199.267 238.942 199.219C239.004 199.17 239.087 199.159 239.159 199.19C239.23 199.221 246.235 202.294 248.656 209.174C248.697 209.291 248.638 209.419 248.525 209.462C248.501 209.47 248.476 209.475 248.451 209.475Z" fill="white"/>
<path d="M272.18 206.066C272.093 206.066 272.014 206.013 271.98 205.931C271.945 205.849 271.961 205.754 272.021 205.688C276.606 200.644 273.61 194.287 273.58 194.223C273.526 194.112 273.57 193.978 273.677 193.922C273.785 193.867 273.916 193.912 273.97 194.023C274.002 194.089 277.129 200.726 272.339 205.995C272.298 206.041 272.24 206.066 272.18 206.066Z" fill="white"/>
<path d="M253.252 220.798C252.203 220.431 251.188 221.413 250.419 222.524L250.415 222.529C249.887 223.317 249.434 224.155 249.064 225.033C249.017 225.147 249.069 225.279 249.18 225.327C249.291 225.375 249.419 225.321 249.466 225.207C249.811 224.381 250.234 223.592 250.728 222.85C251.177 222.769 251.64 222.856 252.032 223.095C252.424 223.394 252.674 223.851 252.721 224.351C252.738 224.459 252.829 224.538 252.936 224.539C252.948 224.539 252.96 224.538 252.971 224.535C253.028 224.526 253.079 224.493 253.113 224.445C253.147 224.396 253.16 224.336 253.151 224.277C253.087 223.654 252.768 223.088 252.274 222.722C251.916 222.488 251.498 222.368 251.075 222.376C251.71 221.565 252.435 220.986 253.112 221.223C253.226 221.262 253.349 221.199 253.388 221.082C253.426 220.965 253.366 220.838 253.252 220.798H253.252Z" fill="#0B122D"/>
<path d="M237.198 242.526C237.095 242.526 237.006 242.452 236.985 242.349C236.963 242.245 237.016 242.14 237.11 242.097C237.183 242.063 244.488 238.699 247.571 234.631C247.619 234.568 247.696 234.536 247.773 234.547C247.85 234.558 247.916 234.61 247.945 234.685C247.974 234.759 247.963 234.844 247.915 234.907C244.764 239.064 237.59 242.369 237.286 242.507C237.259 242.52 237.229 242.526 237.198 242.526Z" fill="#0B122D"/>
<path d="M221.258 324.154C216.28 363.344 213.579 395.359 213.439 400.837C213.299 406.284 216.435 498.519 216.435 498.519C216.435 498.519 224.771 499.377 228.423 497.488C228.423 497.488 231.216 465.136 232.505 454.037C233.794 442.939 237.082 419.034 237.082 408.342C240.347 393.771 243.068 376.252 243.068 376.252C243.068 376.252 245.029 388.797 247.722 405.845C253.413 441.876 262.371 498.023 262.984 498.373C263.655 498.757 268.659 499.615 274.056 497.621C274.056 497.621 273.242 480.958 273.457 471.512C273.671 462.066 273.146 423.769 269.924 407.239C269.924 407.239 271.446 392.378 273.448 381.33C274.719 374.322 276.473 362.945 274.926 352.419C272.961 339.044 269.324 335.798 267.077 323.088C253.493 317.038 235.418 316.64 221.258 324.154Z" fill="#201F20"/>
<path d="M271.518 338.562C268.094 338.562 265.38 337.477 263.451 335.336C259.824 331.311 260.236 325.048 260.255 324.784C260.259 324.724 260.286 324.669 260.33 324.63C260.374 324.591 260.431 324.572 260.489 324.577C260.609 324.586 260.699 324.694 260.69 324.817C260.686 324.88 260.275 331.153 263.772 335.033C265.615 337.077 268.221 338.114 271.518 338.114C271.638 338.114 271.736 338.214 271.736 338.338C271.736 338.462 271.638 338.562 271.518 338.562V338.562Z" fill="#0B122D"/>
<g style="mix-blend-mode:overlay" opacity="0.6">
<path d="M221.258 324.154L220.404 330.988C220.404 330.988 237.887 341.269 270.337 335.971C270.337 335.971 267.523 327.308 267.077 323.088L221.258 324.154Z" fill="#030F1C"/>
</g>
<path fill-rule="evenodd" clip-rule="evenodd" d="M280.336 272.291C282.063 277.105 284.228 283.141 287.188 290.757C290.198 298.503 289.462 304.848 280.374 306.731C278.373 307.145 272.06 308.346 265.185 309.564C265.715 314.182 266.51 318.763 267.565 323.284C267.781 324.219 267.417 325.195 266.65 325.743C259.289 330.845 229.126 333.015 221.61 326.931C220.828 326.283 220.443 325.255 220.6 324.234C222.647 310.221 221.728 300.98 220.197 296.993C219.968 296.397 219.741 295.835 219.522 295.293C218.583 292.971 217.791 291.012 217.624 288.234C213.566 293.832 207.291 301.42 201.89 301.344C197.681 301.285 192.804 298.06 183.525 282.733C183.308 282.375 182.731 281.432 181.954 280.162C179.243 275.732 174.095 267.319 173.304 265.864C177.014 266.24 180.499 263.975 181.764 260.364L190.978 272.608L201.335 284.633C201.571 284.909 201.93 285.04 202.283 284.978C202.635 284.916 202.932 284.671 203.067 284.33C204.791 279.997 206.757 275.769 208.954 271.669C210.838 268.091 213.039 264.699 215.527 261.537C218.48 257.929 222.326 255.211 226.658 253.672C226.698 253.655 235.73 250.497 235.73 250.497C235.73 250.497 232.064 263.558 240.575 263.014C252.303 262.263 255.432 249.01 255.432 249.01C255.432 249.01 262.071 250.799 265.402 251.915C273.759 253.959 274.767 256.769 280.336 272.291ZM264.808 298.023C267.453 297.047 271.029 295.679 272.855 294.978C273.16 294.861 273.405 294.619 273.531 294.309C273.657 293.999 273.652 293.65 273.519 293.343C272.392 290.758 269.609 284.387 267.138 278.84C266.895 282.523 266.441 286.189 265.779 289.817C265.257 292.524 264.933 295.266 264.808 298.023Z" fill="#3268AE"/>
<path fill-rule="evenodd" clip-rule="evenodd" d="M255.431 249.01L262.938 251.131C262.938 251.131 264.383 259.542 251.77 261.182C252.859 266.2 244.845 273.718 237.894 262.84C230.212 271.395 228.034 261.241 231.474 258.466C227.69 255.16 228.578 253.006 228.578 253.006L235.73 250.497C232.993 260.798 237.894 262.84 237.894 262.84C237.894 262.84 237.894 262.84 237.894 262.84C237.922 262.845 250.614 265.288 255.431 249.01Z" fill="#FCC92C"/>
<g style="mix-blend-mode:overlay" opacity="0.6">
<path d="M201.582 290.268C198.34 286.705 187.532 274.42 190.978 272.607L201.334 284.632C201.571 284.908 201.929 285.039 202.282 284.977C202.635 284.916 202.933 284.671 203.068 284.33C204.792 279.996 206.757 275.767 208.955 271.667C210.378 274.628 207.82 282.914 203.207 290.122C203.032 290.396 202.746 290.572 202.429 290.601C202.112 290.629 201.8 290.506 201.582 290.268V290.268Z" fill="white"/>
</g>
<path d="M200.498 290.875C200.428 290.875 200.366 290.832 200.338 290.766C200.311 290.7 200.325 290.624 200.374 290.573C202.407 288.414 202.101 285.444 202.097 285.414C202.086 285.316 202.154 285.228 202.249 285.217C202.344 285.205 202.43 285.275 202.441 285.373C202.599 287.371 201.94 289.346 200.622 290.821C200.589 290.855 200.544 290.875 200.498 290.875V290.875Z" fill="#0B122D"/>
<g style="mix-blend-mode:overlay" opacity="0.6">
<path d="M217.668 285.274C217.869 282.862 219.046 278.166 220.296 271.934C219.869 272.332 219.463 272.754 219.08 273.197C213.488 279.648 217.704 285.732 215.222 289.402C210.282 296.705 209.21 292.592 204.958 296.617C203.711 297.798 203.194 299.279 203.122 301.22C206.677 300.899 213.555 294.423 217.75 289.539C217.562 288.125 217.535 286.694 217.668 285.274V285.274Z" fill="#030F1C"/>
</g>
<g style="mix-blend-mode:overlay" opacity="0.6">
<path d="M218.97 293.907C218.97 293.907 222.668 297.419 226.475 297.492C229.075 297.542 229.629 298.993 226.947 299.587C225.703 299.862 223.391 299.64 220.932 299.572C220.436 297.629 219.78 295.734 218.97 293.907V293.907Z" fill="#030F1C"/>
</g>
<g style="mix-blend-mode:overlay" opacity="0.6">
<path d="M265.18 309.565C263.824 309.806 262.447 310.046 261.076 310.282C261.372 312.245 261.41 314.021 261.163 315.068C259.569 321.849 252.609 326.494 248.695 327.456C246.266 328.076 243.968 329.15 241.916 330.624C241.916 330.624 258.943 330.533 266.65 325.743C266.65 325.743 267.968 325.175 267.565 323.284C266.397 318.788 265.599 314.199 265.18 309.565V309.565Z" fill="#030F1C"/>
</g>
<g style="mix-blend-mode:overlay" opacity="0.6">
<path d="M255.108 300.252C255.61 300.245 256.106 300.372 256.546 300.621C258.933 299.961 261.149 299.317 262.493 298.856C263.083 298.653 263.91 298.354 264.85 298.007C264.871 297.331 264.897 296.647 264.933 295.948C265.173 291.303 266.53 288.095 267.189 278.954C265.592 275.37 264.123 272.124 263.302 270.436C263.514 274.971 263.77 284.84 262.323 289.817C261.018 294.306 255.83 296.596 252.319 297.217C246.955 298.165 247.661 300.435 255.108 300.252Z" fill="#030F1C"/>
</g>
<path d="M237.428 281.006H237.421C237.301 281.003 237.206 280.899 237.209 280.775L237.712 263.133C237.723 263.012 237.819 262.918 237.936 262.915C238.057 262.919 238.151 263.022 238.148 263.146L237.645 280.788C237.642 280.91 237.545 281.006 237.428 281.006Z" fill="#0B122D"/>
<path d="M249.532 312.33C249.438 312.333 249.358 312.261 249.35 312.165C249.341 312.069 249.406 311.982 249.499 311.968L261.063 310.115C261.126 310.104 261.189 310.129 261.229 310.18C261.269 310.231 261.279 310.3 261.256 310.361C261.233 310.422 261.18 310.465 261.118 310.475L249.553 312.328C249.546 312.329 249.539 312.33 249.532 312.33Z" fill="#0B122D"/>
<g style="mix-blend-mode:overlay" opacity="0.6">
<path d="M276.749 296.729C272.639 298.422 260.729 303.82 258.771 300.013C264.969 298.221 272.855 294.978 272.855 294.978C273.154 294.878 273.397 294.651 273.524 294.354C273.65 294.057 273.646 293.719 273.515 293.425C272.598 291.491 271.059 287.51 268.304 281.539C269.236 281.156 271.174 281.536 271.784 282.696C272.49 284.046 276.041 291.249 277.547 294.153C277.885 294.806 277.837 296.281 276.749 296.729Z" fill="white"/>
</g>
<path d="M277.433 297.7C277.347 297.7 277.273 297.635 277.259 297.547C277.239 297.428 276.747 294.614 273.509 294.518C273.411 294.515 273.334 294.431 273.337 294.33C273.34 294.23 273.421 294.15 273.519 294.153C275.483 294.11 277.2 295.51 277.608 297.488C277.624 297.587 277.559 297.681 277.462 297.698C277.453 297.699 277.443 297.7 277.433 297.7Z" fill="#0B122D"/>
<path d="M267.88 278.658C267.844 278.658 267.809 278.647 267.779 278.626C262.713 275.004 262.697 267.12 262.697 267.041C262.698 266.94 262.777 266.859 262.874 266.859H262.875C262.973 266.86 263.052 266.942 263.052 267.043C263.051 267.12 263.07 274.815 267.981 278.326C268.045 278.372 268.072 278.454 268.049 278.53C268.026 278.607 267.957 278.658 267.88 278.658V278.658Z" fill="#0B122D"/>
<g style="mix-blend-mode:overlay" opacity="0.6">
<path d="M215.676 261.338C215.676 261.338 223.49 256.371 232.448 254.535L232.238 251.722C228.535 253.242 221.487 254.294 215.676 261.338Z" fill="white"/>
</g>
<path d="M247.207 317.147L233.598 293.366L229.876 286.861C229.58 286.343 229.04 286.025 228.457 286.026H206.402C205.749 286.103 205.169 286.491 204.835 287.073C204.763 287.179 204.696 287.289 204.637 287.402C204.544 287.573 204.468 287.754 204.411 287.94C204.411 287.944 204.407 287.944 204.407 287.948C204.229 288.389 204.243 288.887 204.446 289.317L204.422 289.269C204.432 289.297 204.444 289.325 204.457 289.353L204.469 289.369C204.473 289.373 204.473 289.377 204.477 289.381C204.487 289.406 204.499 289.43 204.512 289.453L216.636 310.642L218.835 314.478L221.843 319.739C222.139 320.257 222.679 320.574 223.262 320.574H245.317C245.398 320.573 245.479 320.567 245.559 320.554C246.833 320.55 247.854 318.278 247.207 317.147Z" fill="#36C9D8"/>
<g style="mix-blend-mode:overlay" opacity="0.6">
<path d="M204.334 289.017C204.32 288.959 204.309 288.9 204.301 288.84C204.308 288.9 204.319 288.959 204.334 289.017Z" fill="#030F1C"/>
<path d="M204.421 289.268C204.434 289.295 204.443 289.325 204.458 289.351L204.477 289.383C204.457 289.345 204.438 289.306 204.421 289.268Z" fill="#030F1C"/>
<path d="M204.402 289.226C204.375 289.158 204.353 289.089 204.334 289.019C204.351 289.09 204.374 289.159 204.402 289.226Z" fill="#030F1C"/>
<path d="M245.559 320.554C246.1 320.471 246.567 320.117 246.803 319.608C247.039 319.1 247.014 318.503 246.736 318.018L232.861 293.775L229.404 287.732C229.109 287.214 228.569 286.896 227.986 286.897H205.931C205.265 286.893 204.663 287.306 204.411 287.94C204.468 287.753 204.544 287.573 204.637 287.402C204.695 287.288 204.762 287.178 204.835 287.073C205.169 286.491 205.749 286.103 206.402 286.026H228.457C229.04 286.025 229.58 286.343 229.876 286.861L233.598 293.366L247.207 317.147C247.854 318.278 246.833 320.55 245.559 320.554Z" fill="#030F1C"/>
</g>
<g style="mix-blend-mode:overlay" opacity="0.6">
<path d="M205.729 288.457H207.256C207.355 288.457 207.447 288.511 207.498 288.6L207.871 289.257C207.921 289.346 207.922 289.456 207.872 289.546C207.822 289.636 207.729 289.691 207.629 289.691H206.102C206.003 289.691 205.911 289.636 205.86 289.548L205.487 288.891C205.437 288.802 205.436 288.691 205.486 288.602C205.536 288.512 205.629 288.457 205.729 288.457Z" fill="#030F1C"/>
</g>
<g style="mix-blend-mode:overlay" opacity="0.6">
<path d="M220.775 299.259H222.777C223.366 299.284 223.918 299.567 224.291 300.037V300.037C225.151 301.083 224.753 302.399 223.575 302.399H221.573C220.984 302.375 220.433 302.091 220.06 301.621V301.621C219.199 300.575 219.598 299.259 220.775 299.259Z" fill="#030F1C"/>
</g>
<path fill-rule="evenodd" clip-rule="evenodd" d="M179.195 251.837C179.195 251.837 179.015 248.122 177.914 247.089C177.217 246.478 176.273 246.261 175.39 246.507C175.39 246.507 175.302 246.3 175.172 245.99C175.06 245.723 174.912 245.381 174.76 245.031L174.76 245.031C174.489 244.405 174.208 243.756 174.105 243.465C172.656 239.347 170.13 234.051 168.871 234.487C167.88 234.831 168.693 237.177 170.672 242.88L170.672 242.881C170.928 243.619 171.204 244.414 171.498 245.269C171.332 244.963 170.444 243.833 168.717 244.527C167.502 245.013 168.35 247.149 168.35 247.149C168.35 247.149 166.631 246.372 165.797 247.27C164.888 248.255 165.689 249.924 165.75 250.036C165.654 249.988 164.049 249.206 163.406 250.723C163.151 251.328 163.795 253.088 165.034 255.163C165.189 255.419 165.351 255.68 165.522 255.945C165.561 256.004 165.598 256.061 165.637 256.123L165.64 256.124C165.954 256.603 166.298 257.092 166.664 257.581L166.667 257.581C166.774 257.722 166.877 257.86 166.977 257.994L166.978 257.995C168.82 260.456 169.707 261.641 172.56 262.692C172.56 262.692 173.252 264.006 174.257 265.884C177.322 265.849 180.101 264.021 181.419 261.172C180.869 260.245 180.378 259.284 179.947 258.293C179.947 258.293 179.703 255.985 179.195 251.837ZM245.643 304.105L245.648 304.135C245.135 304.22 244.612 304.229 244.096 304.162C243.899 304.095 243.648 304.034 243.367 303.966C242.652 303.794 241.746 303.575 241.048 303.09C240.519 302.722 239.344 301.194 238.317 299.857L238.316 299.857C237.457 298.739 236.699 297.754 236.509 297.694C236.09 297.561 234.865 299.524 235.761 300.924C236.043 301.364 236.343 301.783 236.615 302.162C237.207 302.988 237.664 303.625 237.495 303.878C237.315 304.149 236.41 304.27 235.559 304.385C235.412 304.405 235.266 304.424 235.127 304.444C233.211 304.661 228.802 305.188 228.373 305.482C227.824 305.861 227.562 306.881 228.604 307.119C229.138 307.241 228.393 307.594 227.762 307.892L227.762 307.892C227.502 308.015 227.261 308.129 227.138 308.213C226.589 308.591 226.327 309.612 227.37 309.849C228.176 310.033 229.461 310.335 229.106 310.579C228.556 310.958 228.295 311.979 229.337 312.216C229.509 312.255 229.746 312.3 230.002 312.349C230.78 312.497 231.727 312.677 231.516 312.822C231.024 313.161 230.79 314.073 231.722 314.287C232.306 314.42 235.43 314.03 237.686 313.719C239.052 313.998 242.843 313.62 244.36 312.635C245.282 312.11 246.274 311.725 247.303 311.494C247.689 308.923 247.24 306.293 246.026 304.012C245.798 304.069 245.664 304.102 245.643 304.105ZM239.386 263.027C231.882 262.761 235.548 251.237 235.548 251.237L255.432 249.01C254.121 257.85 247.21 263.304 239.386 263.027Z" fill="#FFB7B6"/>
<path d="M235.462 306.649C235.458 306.606 235.437 306.566 235.405 306.539C235.372 306.511 235.331 306.498 235.289 306.503L228.344 307.194C228.259 307.202 228.196 307.279 228.201 307.367C228.207 307.455 228.28 307.522 228.365 307.519L228.375 307.518L235.319 306.827C235.361 306.823 235.4 306.802 235.426 306.769C235.453 306.735 235.466 306.692 235.462 306.649V306.649Z" fill="#0B122D"/>
<path d="M235.894 309.656C235.882 309.567 235.803 309.504 235.717 309.515L228.662 310.435C228.578 310.445 228.517 310.523 228.524 310.61C228.531 310.697 228.603 310.763 228.688 310.759L228.702 310.758L235.756 309.838C235.798 309.833 235.836 309.811 235.862 309.777C235.888 309.742 235.899 309.699 235.894 309.656V309.656Z" fill="#0B122D"/>
<path d="M237.003 312.044L231.076 312.677C230.991 312.686 230.928 312.763 230.934 312.851C230.94 312.938 231.013 313.005 231.098 313.002L231.108 313.001L237.035 312.368C237.122 312.359 237.186 312.279 237.177 312.189C237.167 312.1 237.09 312.036 237.003 312.044Z" fill="#0B122D"/>
<path d="M173.603 251.145C173.507 251.147 173.431 251.228 173.433 251.326C173.441 251.788 173.384 252.368 173.071 252.505C172.621 252.701 171.692 251.99 171.213 251.495C171.159 251.44 171.076 251.427 171.009 251.464C170.942 251.501 170.906 251.578 170.921 251.655C171.107 252.645 170.999 253.306 170.601 253.617C169.794 254.248 168.021 253.35 168.003 253.341C167.977 253.329 167.949 253.323 167.92 253.324C167.493 252.572 166.759 251.374 166.437 250.651C166.397 250.562 166.295 250.522 166.208 250.563C166.121 250.604 166.083 250.71 166.123 250.799C166.47 251.579 167.291 252.906 167.704 253.649C167.718 253.673 167.737 253.693 167.76 253.707C167.79 254.354 167.664 254.812 167.366 255.05C166.869 255.449 166.046 255.153 166.038 255.15C165.948 255.117 165.849 255.165 165.817 255.257C165.784 255.35 165.831 255.452 165.921 255.485C166.166 255.569 166.422 255.613 166.68 255.615C167.002 255.626 167.317 255.527 167.577 255.332C167.991 254.937 168.192 254.36 168.117 253.784C168.689 254.03 170.037 254.504 170.81 253.901C171.242 253.563 171.418 252.955 171.333 252.09C171.806 252.499 172.626 253.085 173.205 252.833C173.6 252.661 173.793 252.152 173.779 251.32C173.779 251.272 173.76 251.227 173.727 251.194C173.694 251.161 173.649 251.143 173.603 251.145V251.145Z" fill="#030F1C"/>
<path d="M175.362 250.415C174.128 250.619 170.766 250.972 170.032 250.168C169.914 250.041 169.871 249.858 169.92 249.69C170.317 247.88 175.012 246.785 175.059 246.774C175.119 246.76 175.168 246.714 175.187 246.654C175.205 246.593 175.191 246.527 175.149 246.48C175.107 246.433 175.044 246.412 174.984 246.426C174.792 246.47 170.482 247.478 169.68 249.323L168.791 247.735C168.745 247.649 168.641 247.618 168.557 247.665C168.473 247.712 168.442 247.819 168.488 247.905L169.558 249.816L169.56 249.818C169.553 250.038 169.632 250.252 169.78 250.412C170.219 250.893 171.28 251.033 172.368 251.032C173.39 251.019 174.408 250.93 175.417 250.767C175.511 250.751 175.575 250.66 175.56 250.563C175.545 250.466 175.456 250.4 175.362 250.415H175.362Z" fill="#030F1C"/>
<path d="M99.0833 212.873C99.0833 206.072 106.638 208.24 107.924 208.666C109.209 209.092 112.209 199.292 112.209 199.292C112.209 199.292 127.638 198.013 130.638 200.996C130.638 200.996 131.495 213.779 131.067 221.875C130.638 229.971 128.022 233.372 125.022 233.372C124.073 233.319 123.14 233.102 122.266 232.732V247.636L104.119 238.284L106.354 220.678C106.262 220.625 106.209 220.597 106.209 220.597C106.209 220.597 99.0834 219.297 99.0833 212.873Z" fill="#F7B17D"/>
<path d="M131.187 210.417C131.187 210.417 134.924 206.962 135.352 199.718C135.781 192.474 134.238 184.817 129.677 185.101C125.117 185.384 119.321 185.652 114.76 185.093C110.2 184.534 99.8434 186.99 99.0833 194.925C96.6488 198.612 95.5127 202.997 95.8529 207.394C96.423 214.762 98.8911 224.484 106.589 226.665L106.946 220.832C106.946 220.832 99.0833 214.207 101.555 211.08C104.727 207.066 109.155 210.7 109.63 213.44C109.63 213.44 111.044 212.019 111.245 206.827C111.245 206.827 115.045 204.088 115.14 200.309C115.14 200.309 127.302 199.081 129.867 201.16L131.187 210.417Z" fill="#161B36"/>
<g style="mix-blend-mode:overlay" opacity="0.6">
<path d="M122.252 232.71C122.252 232.71 116.076 229.854 114.081 227.776C114.081 227.776 114.542 233.379 118.62 237.316C122.699 241.254 122.252 238.072 122.252 238.072L122.252 232.71Z" fill="#030F1C"/>
</g>
<ellipse cx="0.80166" cy="1.31068" rx="0.80166" ry="1.31068" transform="matrix(-1 0 0 1 122.253 209.456)" fill="#161B36"/>
<ellipse cx="0.80166" cy="1.31068" rx="0.80166" ry="1.31068" transform="matrix(-1 0 0 1 130.185 210.001)" fill="#161B36"/>
<path d="M123.108 205.524C122.823 205.205 122.431 204.957 121.255 205.028C120.079 205.099 118.298 206.197 118.69 206.481C119.082 206.764 120.258 205.808 121.184 206.126C122.11 206.445 122.642 206.707 122.953 206.534C123.345 206.315 123.245 205.677 123.108 205.524Z" fill="#161B36"/>
<path d="M128.203 205.199C128.576 204.989 129.028 204.88 130.118 205.324C131.207 205.769 132.537 207.38 132.074 207.522C131.611 207.665 130.809 206.382 129.829 206.386C128.848 206.391 128.26 206.468 128.021 206.204C127.721 205.871 128.024 205.3 128.203 205.199Z" fill="#161B36"/>
<g style="mix-blend-mode:overlay" opacity="0.6">
<path d="M126.464 219.608C126.878 219.623 127.288 219.528 127.652 219.334C127.891 219.201 128.058 218.968 128.106 218.7C128.195 218.145 127.624 217.285 126.925 216.301C126.747 216.066 126.584 215.82 126.438 215.565C126.295 215.263 126.336 212.503 126.457 210.011L126.029 209.99C125.987 210.855 125.79 215.194 126.049 215.745C126.205 216.025 126.381 216.292 126.575 216.547C127.015 217.167 127.751 218.204 127.683 218.633C127.654 218.778 127.56 218.903 127.428 218.97C126.812 219.233 126.12 219.255 125.489 219.03L125.358 219.436C125.716 219.549 126.089 219.607 126.464 219.608Z" fill="#030F1C"/>
</g>
<path d="M126.983 223.662C127.019 223.536 127.004 223.401 126.939 223.287C126.875 223.172 126.768 223.088 126.641 223.053C126.011 222.872 124.848 222.53 123.963 222.231C123.04 221.867 122.142 221.442 121.276 220.96C121.125 220.878 120.942 220.88 120.793 220.964C120.643 221.048 120.548 221.203 120.54 221.374C120.48 222.685 120.639 225.247 122.713 225.769C125.236 226.404 126.557 225.047 126.983 223.662Z" fill="#161B36"/>
<path d="M125.886 225.297C125.886 225.297 123.716 222.282 120.615 222.971C120.615 222.971 120.61 225.325 122.609 225.856C124.761 226.427 125.886 225.297 125.886 225.297Z" fill="#E55151"/>
<path d="M103.813 211.42C105.864 210.726 107.775 215.175 107.856 215.365C107.902 215.473 107.85 215.598 107.741 215.644C107.632 215.689 107.507 215.638 107.461 215.53C107.128 214.762 106.721 214.028 106.246 213.339C105.813 213.264 105.368 213.345 104.99 213.568C104.615 213.846 104.375 214.269 104.33 214.732C104.313 214.835 104.224 214.91 104.119 214.91C104.107 214.91 104.096 214.909 104.084 214.907C104.028 214.898 103.978 214.867 103.945 214.821C103.912 214.775 103.898 214.718 103.908 214.662C103.982 213.632 104.867 212.846 105.905 212.889C105.294 212.138 104.598 211.604 103.95 211.823C103.878 211.848 103.798 211.832 103.74 211.782C103.683 211.732 103.656 211.655 103.671 211.58C103.686 211.505 103.74 211.444 103.813 211.42H103.813Z" fill="#0B122D"/>
<path d="M122.266 232.946C122.367 232.946 122.455 232.875 122.476 232.777C122.497 232.679 122.446 232.579 122.353 232.538C122.282 232.507 115.241 229.375 112.269 225.589C112.196 225.496 112.061 225.48 111.968 225.552C111.875 225.625 111.858 225.759 111.931 225.851C114.97 229.722 121.886 232.799 122.179 232.928C122.207 232.94 122.236 232.946 122.266 232.946Z" fill="#0B122D"/>
<path d="M113.193 197.594C113.23 197.594 113.267 197.584 113.3 197.566C116.848 195.536 116.327 190.577 116.303 190.367C116.298 190.31 116.27 190.258 116.225 190.223C116.18 190.187 116.123 190.172 116.066 190.179C115.949 190.193 115.864 190.298 115.877 190.415C115.883 190.463 116.389 195.307 113.086 197.196C113.001 197.245 112.96 197.343 112.985 197.436C113.011 197.53 113.096 197.594 113.193 197.594L113.193 197.594Z" fill="white"/>
<path d="M106.37 203.357C106.425 203.357 106.478 203.335 106.518 203.297C110.148 199.85 108.712 194.265 108.697 194.209C108.667 194.096 108.549 194.028 108.435 194.058C108.32 194.088 108.252 194.205 108.282 194.318C108.297 194.372 109.667 199.718 106.222 202.989C106.158 203.05 106.138 203.142 106.171 203.223C106.203 203.303 106.282 203.356 106.37 203.357H106.37Z" fill="white"/>
<rect width="13.4832" height="24.5167" rx="2.86665" transform="matrix(-0.980287 -0.197578 -0.199786 0.97984 212.76 247.133)" fill="#36C9D8"/>
<g style="mix-blend-mode:overlay" opacity="0.6">
<path d="M195.835 266.678L199.929 246.6C200.064 245.939 200.712 245.512 201.377 245.646L203.342 246.042L203.324 246.132C203.291 246.295 203.324 246.465 203.417 246.603C203.509 246.742 203.653 246.838 203.817 246.871L207.882 247.69C208.046 247.724 208.216 247.691 208.356 247.599C208.495 247.507 208.592 247.364 208.625 247.201L208.644 247.11L210.609 247.507C211.274 247.641 211.703 248.285 211.569 248.946L207.475 269.024C207.41 269.342 207.221 269.621 206.95 269.8C206.678 269.979 206.346 270.043 206.027 269.979L196.796 268.118C196.476 268.054 196.196 267.866 196.016 267.596C195.836 267.326 195.771 266.996 195.835 266.678Z" fill="white"/>
</g>
<path fill-rule="evenodd" clip-rule="evenodd" d="M66.9842 274.889C65.4484 278.812 63.7173 283.234 61.7259 288.225C58.1711 297.135 64.1331 305.882 76.3421 304.678C79.1158 304.404 81.8491 304.107 84.68 303.744C84.8919 308.296 84.8496 312.833 82.762 320.724C81.5779 325.486 80.9396 330.366 80.8592 335.271C80.8592 335.271 131.113 343.678 141.382 335.271C143.515 333.524 142.469 329.34 141.519 325.538C141.051 323.664 140.606 321.883 140.576 320.532C140.494 316.745 140.317 313.143 140.15 309.732C140.034 307.362 139.922 305.084 139.85 302.9C141.16 304.949 142.572 306.932 144.082 308.841C148.522 314.456 151.876 316.474 158.014 313.239C165.406 309.342 175.678 299.584 197.91 277.543C193.955 276.268 191.995 272.832 191.624 268.624L173.511 280.103L157.051 290.216C156.674 290.449 156.202 290.471 155.804 290.276C155.406 290.08 155.138 289.694 155.096 289.255C154.551 283.675 153.682 278.131 152.494 272.65C149.957 261.19 146.296 250.898 136.941 246.23C131.985 243.473 125.328 240.523 125.328 240.523L116.872 242.603L102.712 239.39C102.712 239.39 92.5137 241.533 88.0741 242.895C78.461 245.573 76.3786 250.892 66.9842 274.889ZM83.8778 284.624L83.961 286.768L82.7859 286.823C83.1733 286.037 83.4934 285.388 83.8778 284.624Z" fill="#FF6C2F"/>
<path fill-rule="evenodd" clip-rule="evenodd" d="M104.668 232.116L102.714 239.389L114.116 248.175C114.116 248.175 114.686 244.68 116.871 242.601L121.812 248.175L125.327 240.523L122.192 236.839C122.192 236.839 120.528 240.946 116.871 242.601C111.395 241.163 106.892 237.294 104.668 232.116ZM99.0085 269.317H113.118V271.618H99.0085V269.317Z" fill="#06122B"/>
<path d="M135.588 327.548C135.626 327.548 135.663 327.538 135.695 327.519C139.434 325.375 140.73 320.784 140.783 320.589C140.804 320.516 140.783 320.437 140.729 320.383C140.675 320.329 140.596 320.308 140.522 320.327C140.448 320.347 140.39 320.404 140.37 320.477C140.357 320.523 139.065 325.095 135.481 327.151C135.397 327.199 135.356 327.297 135.381 327.39C135.407 327.483 135.491 327.548 135.588 327.548V327.548Z" fill="#0B122D"/>
<path d="M141.306 276.515C141.412 276.515 141.502 276.438 141.518 276.334C142.946 266.9 142.268 260.076 142.261 260.008C142.248 259.892 142.144 259.808 142.026 259.818C141.97 259.824 141.918 259.851 141.882 259.895C141.846 259.939 141.829 259.995 141.835 260.051C141.842 260.119 142.514 266.894 141.094 276.271C141.086 276.327 141.1 276.383 141.134 276.429C141.167 276.474 141.218 276.504 141.274 276.513C141.285 276.514 141.295 276.515 141.306 276.515Z" fill="#0B122D"/>
<g style="mix-blend-mode:overlay" opacity="0.6">
<path d="M118.131 262.533C118.131 262.898 118.429 263.194 118.796 263.194C119.164 263.194 119.461 262.897 119.461 262.532C119.461 262.167 119.163 261.871 118.796 261.871C118.62 261.871 118.45 261.941 118.326 262.065C118.201 262.189 118.131 262.358 118.131 262.533" fill="#030F1C"/>
</g>
<g style="mix-blend-mode:overlay" opacity="0.6">
<path d="M117.664 275.641C117.664 275.908 117.826 276.149 118.074 276.252C118.323 276.355 118.609 276.298 118.799 276.109C118.99 275.92 119.047 275.636 118.944 275.388C118.841 275.141 118.598 274.98 118.329 274.98C117.962 274.98 117.664 275.275 117.664 275.641" fill="#030F1C"/>
</g>
<g style="mix-blend-mode:overlay" opacity="0.6">
<path d="M116.325 303.494C116.325 303.762 116.487 304.003 116.736 304.105C116.984 304.208 117.27 304.151 117.46 303.962C117.651 303.773 117.708 303.489 117.605 303.242C117.502 302.995 117.26 302.834 116.991 302.833C116.624 302.833 116.326 303.129 116.325 303.494" fill="#030F1C"/>
</g>
<g style="mix-blend-mode:overlay" opacity="0.6">
<path d="M116.99 322.431C116.99 322.699 117.152 322.94 117.401 323.043C117.649 323.146 117.936 323.089 118.126 322.9C118.316 322.711 118.373 322.426 118.27 322.179C118.167 321.932 117.925 321.771 117.656 321.771C117.288 321.771 116.991 322.066 116.99 322.431" fill="#030F1C"/>
</g>
<g style="mix-blend-mode:overlay" opacity="0.6">
<path d="M121.812 248.175L113.118 243.782L116.871 242.601L121.812 248.175V248.175Z" fill="#030F1C"/>
</g>
<path d="M119.174 285.115C119.798 275.027 120.473 261.024 120.281 257.586C120.013 252.807 116.701 242.993 116.668 242.894C116.643 242.822 116.658 242.742 116.709 242.684C116.76 242.626 116.837 242.6 116.913 242.615C116.989 242.631 117.05 242.685 117.074 242.758C117.107 242.857 120.438 252.726 120.708 257.563C120.901 261.005 120.228 274.993 119.604 285.095L119.174 285.115Z" fill="#0B122D"/>
<path d="M118.79 297.025C118.706 301.294 119.001 309.25 119.288 316.992C119.629 326.172 119.981 335.664 119.697 338.972C119.688 339.082 119.595 339.167 119.484 339.167C119.478 339.167 119.472 339.166 119.466 339.166C119.348 339.156 119.26 339.053 119.27 338.936C119.551 335.654 119.2 326.175 118.86 317.008C118.575 309.336 118.283 301.452 118.36 297.131C118.503 297.096 118.646 297.06 118.79 297.025Z" fill="#0B122D"/>
<g style="mix-blend-mode:overlay" opacity="0.6">
<path d="M83.8878 283.961C84.5903 282.578 85.5616 280.701 87.3767 277.228C87.5309 276.934 87.6853 276.636 87.8439 276.337C87.9981 276.043 88.1567 275.745 88.3152 275.447C89.8938 272.457 91.6245 269.24 93.4407 265.955C94.0784 272.749 93.8713 279.595 92.8242 286.338L83.9435 286.754C83.9198 285.749 83.9016 284.812 83.8878 283.961Z" fill="#030F1C"/>
</g>
<g style="mix-blend-mode:overlay" opacity="0.6">
<path d="M84.6713 303.703C86.1309 303.514 87.6194 303.307 89.1527 303.076C88.206 314.82 94.0202 323.31 99.0085 328.562C104.15 333.976 114.781 335.27 122.413 339.007C107.798 339.804 80.8616 335.27 80.8616 335.27C80.8616 335.27 80.2724 328.235 83.4351 317.985C84.5396 314.405 84.8319 309.581 84.6713 303.703Z" fill="#030F1C"/>
</g>
<g style="mix-blend-mode:overlay" opacity="0.6">
<path d="M114.116 248.175L95.7201 240.946L102.714 239.389L114.116 248.175V248.175Z" fill="#030F1C"/>
</g>
<g style="mix-blend-mode:overlay" opacity="0.6">
<path d="M139.771 297.578C139.796 294.617 140.182 289.614 140.666 283.926C140.852 281.741 141.052 279.455 141.25 277.144C141.795 278.175 142.25 279.252 142.609 280.361C145.376 288.939 142.508 294.066 142.635 298.609C142.735 302.151 150.243 307.335 146.725 312.151C144.905 310.236 143.757 308.841 143.757 308.841C142.341 307.05 141.051 305.242 139.869 303.427C139.796 301.397 139.754 299.445 139.771 297.578Z" fill="#030F1C"/>
</g>
<g style="mix-blend-mode:overlay" opacity="0.6">
<path d="M158.047 294.661C158.951 294.22 168.843 288.895 172.692 285.393C174.829 283.447 174.507 281.045 173.519 280.103L157.058 290.216C156.681 290.449 156.21 290.471 155.812 290.276C155.414 290.08 155.146 289.694 155.103 289.255C154.559 283.675 153.69 278.131 152.501 272.65C151.076 273.245 149.509 274.662 149.936 278.63C150.405 282.978 150.459 291.307 152.169 294.075C152.605 294.78 154.7 296.294 158.047 294.661Z" fill="white"/>
</g>
<path d="M155.215 298.228C155.29 298.229 155.359 298.19 155.398 298.126C155.437 298.063 155.44 297.983 155.405 297.917C153.739 294.721 155.131 291.425 155.145 291.392C155.176 291.322 155.167 291.24 155.122 291.179C155.076 291.117 155 291.085 154.924 291.094C154.847 291.103 154.782 291.152 154.752 291.223C154.69 291.364 153.262 294.733 155.024 298.114C155.061 298.184 155.135 298.228 155.215 298.228V298.228Z" fill="#0B122D"/>
<g style="mix-blend-mode:overlay" opacity="0.60001">
<path d="M144.049 251.913C144.049 251.913 139.25 248.312 134.191 247.107C130.891 246.285 127.671 245.171 124.571 243.779L126.039 240.847C126.039 240.847 136.946 245.667 139.984 248.076C141.477 249.201 142.841 250.488 144.049 251.913" fill="white"/>
</g>
<path d="M88.2537 273.936C88.2974 273.936 88.34 273.923 88.3759 273.898C94.504 269.667 94.5232 260.459 94.5228 260.367C94.5221 260.25 94.4264 260.155 94.3085 260.155H94.3073C94.189 260.156 94.0938 260.252 94.0943 260.369C94.0947 260.46 94.0725 269.447 88.1315 273.548C88.0544 273.601 88.021 273.697 88.049 273.786C88.077 273.875 88.16 273.936 88.2537 273.936V273.936Z" fill="#0B122D"/>
<path d="M101.616 286.138L101.626 286.138L124.27 285.073C124.327 285.071 124.381 285.046 124.419 285.004C124.457 284.962 124.477 284.907 124.474 284.85C124.473 284.794 124.448 284.74 124.406 284.702C124.364 284.663 124.307 284.644 124.25 284.648L101.606 285.713C101.489 285.718 101.399 285.815 101.402 285.93C101.404 286.046 101.499 286.138 101.616 286.138V286.138Z" fill="#0B122D"/>
<path d="M100.834 301.231C100.851 301.231 100.867 301.229 100.884 301.225L125.954 295.345C126.069 295.318 126.14 295.203 126.112 295.089C126.085 294.975 125.97 294.904 125.855 294.931L100.785 300.81C100.679 300.835 100.609 300.935 100.621 301.042C100.634 301.15 100.726 301.231 100.834 301.231Z" fill="#0B122D"/>
<path d="M77.3574 291.109C77.462 291.108 77.5512 291.033 77.5683 290.93C77.5917 290.79 78.1877 287.504 82.1043 287.392C82.2226 287.389 82.3157 287.29 82.3123 287.173C82.3021 287.058 82.2073 286.969 82.0917 286.966C77.8152 287.088 77.1519 290.824 77.1456 290.861C77.1364 290.917 77.1498 290.974 77.1829 291.02C77.216 291.066 77.2661 291.097 77.3222 291.106C77.3338 291.108 77.3456 291.109 77.3574 291.109Z" fill="#0B122D"/>
<g style="mix-blend-mode:overlay" opacity="0.6">
<path d="M92.0148 289.8C96.896 289.199 98.0052 287.639 98.0052 286.095L82.461 286.823C83.5881 284.536 88.6695 274.776 88.8281 274.478C87.3614 274.011 85.4918 275.301 83.9268 277.756C82.0978 280.625 76.9791 287.604 79.0737 289.599C80.2789 290.748 89.2495 290.141 92.0148 289.8Z" fill="white"/>
</g>
<path fill-rule="evenodd" clip-rule="evenodd" d="M194.231 262.169C194.394 260.295 193.778 257.664 193.348 255.829C193.093 254.738 192.903 253.929 192.981 253.723C193.19 253.172 196.243 253.434 196.956 255.505C197.035 255.738 197.099 255.975 197.147 256.216L194.888 267.294C194.824 267.612 194.888 267.942 195.068 268.212C195.249 268.482 195.529 268.67 195.848 268.734L206.018 270.784C204.698 272.334 203.082 273.988 201.23 274.647C199.847 275.139 198.341 276.227 197.124 277.248C193.821 275.844 192.104 272.778 191.673 269.052C192.537 268.177 193.299 267.333 193.432 266.959C193.846 265.39 194.113 263.787 194.231 262.169ZM209.516 260.144C208.979 260.193 208.457 259.948 208.155 259.504C207.853 259.06 207.817 258.488 208.063 258.011C208.309 257.533 208.796 257.227 209.335 257.211L211.157 257.099C211.519 257.077 211.873 257.215 212.123 257.476C212.374 257.737 212.495 258.095 212.455 258.454L212.411 258.855C212.348 259.422 211.899 259.87 211.33 259.935L209.516 260.144ZM209.367 261.071C208.663 260.998 208.004 261.425 207.787 262.095C207.638 262.557 207.724 263.062 208.018 263.449C208.312 263.836 208.777 264.056 209.265 264.039L210.69 264.025C211.193 264.021 211.626 263.671 211.734 263.182L211.885 262.499C211.952 262.196 211.884 261.879 211.699 261.63C211.514 261.381 211.23 261.223 210.919 261.198L209.367 261.071ZM208.583 265.459L209.893 265.613C210.168 265.645 210.413 265.801 210.556 266.037C210.699 266.273 210.724 266.561 210.624 266.818L210.361 267.494C210.22 267.858 209.857 268.088 209.466 268.061L208.122 267.972C207.661 267.899 207.277 267.584 207.117 267.149C206.957 266.714 207.046 266.227 207.35 265.876C207.655 265.525 208.126 265.365 208.583 265.459ZM124.993 285.615L123.931 286.001C122.582 288.962 123.561 292.354 125.305 294.298L128.342 293.766C128.342 293.766 139.998 294.293 142.098 293.135C144.197 291.977 142.887 290.864 142.887 290.864C142.887 290.864 146.267 289.77 144.821 287.89C144.821 287.89 147.807 287.237 146.82 284.802C146.82 284.802 156.849 283.994 156.369 282.182C155.889 280.37 136.203 281.842 136.203 281.842C136.203 281.842 142.475 275.529 140.232 273.631C137.747 276.036 134.872 278.008 131.729 279.465C126.515 281.879 124.993 285.615 124.993 285.615Z" fill="#F7B17D"/>
<path d="M142.395 284.686C142.395 284.63 142.418 284.576 142.458 284.536C142.498 284.496 142.552 284.473 142.609 284.473H146.337C146.455 284.473 146.551 284.569 146.551 284.686C146.551 284.804 146.455 284.899 146.337 284.899H142.609C142.552 284.899 142.498 284.877 142.458 284.837C142.418 284.797 142.395 284.743 142.395 284.686Z" fill="#030F1C"/>
<path d="M139.25 287.857C139.25 287.8 139.272 287.746 139.313 287.706C139.353 287.666 139.407 287.644 139.464 287.644H144.356C144.474 287.644 144.57 287.739 144.57 287.857C144.57 287.975 144.474 288.07 144.356 288.07H139.464C139.407 288.07 139.353 288.048 139.313 288.008C139.272 287.968 139.25 287.914 139.25 287.857Z" fill="#030F1C"/>
<path d="M139.034 290.601H142.321C142.439 290.601 142.535 290.696 142.535 290.814C142.535 290.931 142.439 291.027 142.321 291.027H139.034C138.916 291.027 138.82 290.931 138.82 290.814C138.82 290.696 138.916 290.601 139.034 290.601Z" fill="#030F1C"/>
<path d="M283.3 231.195V231.195C282.348 226.93 284.895 222.666 289.1 221.481V221.481V221.481C284.836 222.432 280.571 219.886 279.386 215.681V215.681V215.681C280.337 219.945 277.791 224.209 273.586 225.394V225.394V225.394C277.85 224.443 282.114 226.989 283.3 231.195V231.195Z" fill="white"/>
<path d="M63.5945 254.357V254.357C64.8626 251.336 68.2705 249.832 71.3573 250.931V250.931V250.931C68.3359 249.663 66.8318 246.255 67.9313 243.168V243.168V243.168C66.6632 246.19 63.2552 247.694 60.1684 246.594V246.594V246.594C63.1898 247.863 64.6939 251.271 63.5945 254.357V254.357Z" fill="white"/>
<path d="M97.4808 184.512V184.512C96.6296 181.347 98.3992 178.069 101.512 177.045V177.045V177.045C98.3475 177.896 95.0695 176.126 94.0451 173.014V173.014V173.014C94.8962 176.178 93.1266 179.456 90.0141 180.481V180.481V180.481C93.1784 179.63 96.4563 181.399 97.4808 184.512V184.512Z" fill="white"/>
<path d="M208.226 223.502V223.502C207.517 220.865 208.992 218.133 211.586 217.28V217.28V217.28C208.949 217.989 206.217 216.514 205.363 213.92V213.92V213.92C206.073 216.557 204.598 219.289 202.004 220.143V220.143V220.143C204.641 219.433 207.373 220.908 208.226 223.502V223.502Z" fill="#FCC92C"/>
<path d="M200.749 318.216V318.216C201.6 315.051 199.83 311.773 196.718 310.749V310.749V310.749C199.882 311.6 203.16 309.83 204.184 306.718V306.718V306.718C203.333 309.882 205.103 313.16 208.215 314.185V314.185V314.185C205.051 313.333 201.773 315.103 200.749 318.216V318.216Z" fill="white"/>
<path d="M165.791 277.013V277.013C166.5 274.376 165.025 271.644 162.431 270.791V270.791V270.791C165.068 271.5 167.8 270.025 168.654 267.432V267.432V267.432C167.944 270.068 169.419 272.8 172.013 273.654V273.654V273.654C169.376 272.944 166.644 274.419 165.791 277.013V277.013Z" fill="#FCC92C"/>
</g>
<defs>
<filter id="filter0_i_108_856" x="186" y="275" width="45.6192" height="68.3972" filterUnits="userSpaceOnUse" color-interpolation-filters="sRGB">
<feFlood flood-opacity="0" result="BackgroundImageFix"/>
<feBlend mode="normal" in="SourceGraphic" in2="BackgroundImageFix" result="shape"/>
<feColorMatrix in="SourceAlpha" type="matrix" values="0 0 0 0 0 0 0 0 0 0 0 0 0 0 0 0 0 0 127 0" result="hardAlpha"/>
<feOffset dy="-3"/>
<feGaussianBlur stdDeviation="1.5"/>
<feComposite in2="hardAlpha" operator="arithmetic" k2="-1" k3="1"/>
<feColorMatrix type="matrix" values="0 0 0 0 0.825 0 0 0 0 0.154687 0 0 0 0 0.190342 0 0 0 1 0"/>
<feBlend mode="normal" in2="shape" result="effect1_innerShadow_108_856"/>
</filter>
</defs>
</svg>
